<svg width="50" height="50" viewBox="0 0 50 50" fill="none" xmlns="http://www.w3.org/2000/svg">
<g opacity="0.7">
<path d="M44.271 21.875C46.2814 21.875 47.9168 23.5104 47.9168 25.5208C47.9168 27.5312 46.2814 29.1667 44.271 29.1667H44.0314H5.96891H5.72933C3.71891 29.1667 2.0835 27.5312 2.0835 25.5208C2.0835 24.5208 2.48975 23.6042 3.15641 22.9479C3.81266 22.2813 4.72933 21.875 5.72933 21.875H6.63558H43.3647H44.271Z" fill="#E0F7FA"/>
<path d="M44.0312 29.1665L39.5833 47.9165H10.4167L5.96875 29.1665H44.0312Z" fill="#4DD0E1"/>
<path d="M43.3644 21.875H6.63525C8.06234 15.9687 13.4894 11.2812 20.4582 9.83333C21.9061 9.53125 23.4269 9.375 24.9998 9.375C26.5728 9.375 28.0936 9.53125 29.5415 9.83333C36.5103 11.2812 41.9373 15.9687 43.3644 21.875Z" fill="#FF7043"/>
<path d="M30.2082 7.29183C30.2082 8.21891 29.9686 9.08349 29.5415 9.83349C28.0936 9.53141 26.5728 9.37516 24.9998 9.37516C23.4269 9.37516 21.9061 9.53141 20.4582 9.83349C20.0311 9.08349 19.7915 8.21891 19.7915 7.29183C19.7915 4.41683 22.1248 2.0835 24.9998 2.0835C27.8748 2.0835 30.2082 4.41683 30.2082 7.29183Z" fill="#FF8A65"/>
<path d="M44.9135 19.8302C43.0271 14.5531 38.2844 10.2958 32.201 8.38646C32.2552 8.025 32.2917 7.66042 32.2917 7.29167C32.2917 3.27083 29.0208 0 25 0C20.9792 0 17.7083 3.27083 17.7083 7.29167C17.7083 7.66042 17.7448 8.025 17.799 8.38646C11.7052 10.299 6.95729 14.5667 5.07604 19.8562C3.7875 20.0021 2.59583 20.5479 1.69271 21.4646C0.602083 22.5406 0 23.9812 0 25.5208C0 28.1771 1.81979 30.4104 4.27604 31.0562L8.38958 48.3979C8.6125 49.3365 9.45104 50 10.4167 50H39.5833C40.549 50 41.3875 49.3365 41.6104 48.3969L45.724 31.0552C48.1802 30.4104 50 28.1771 50 25.5208C50 22.5792 47.7708 20.151 44.9135 19.8302ZM25 4.16667C26.7229 4.16667 28.125 5.56875 28.125 7.29167C28.125 7.35729 28.1229 7.42187 28.1198 7.48542C27.0979 7.35729 26.0542 7.29167 25 7.29167C23.9458 7.29167 22.9021 7.35729 21.8802 7.48542C21.8771 7.42187 21.875 7.35729 21.875 7.29167C21.875 5.56875 23.2771 4.16667 25 4.16667ZM20.8812 11.8729C20.8823 11.8729 20.8833 11.8729 20.8833 11.8729C23.5177 11.3229 26.4802 11.3229 29.1146 11.8729C29.1156 11.8729 29.1167 11.8729 29.1177 11.8729C34.2271 12.9354 38.3865 15.9229 40.376 19.7917H9.62292C11.6125 15.9229 15.7719 12.9354 20.8812 11.8729ZM37.9365 45.8333H12.0635L8.60417 31.25H41.3958L37.9365 45.8333ZM44.2708 27.0833H44.0312H5.96875H5.72917C4.86771 27.0833 4.16667 26.3823 4.16667 25.5208C4.16667 25.1052 4.32708 24.7188 4.63958 24.4104C4.92708 24.1187 5.31354 23.9583 5.72917 23.9583H6.63542H43.3646H44.2708C45.1323 23.9583 45.8333 24.6594 45.8333 25.5208C45.8333 26.3823 45.1323 27.0833 44.2708 27.0833Z" fill="#012E52"/>
<path d="M19.3606 14.1519L18.3189 15.1936C17.5054 16.0071 17.5054 17.3259 18.3189 18.1394C18.7251 18.5467 19.2585 18.7498 19.7918 18.7498C20.3251 18.7498 20.8585 18.5467 21.2647 18.1394L22.3064 17.0977C23.1199 16.2842 23.1199 14.9654 22.3064 14.1519C21.4939 13.3384 20.1731 13.3384 19.3606 14.1519Z" fill="#012E52"/>
<path d="M30.6397 14.1519C29.8272 13.3384 28.5064 13.3384 27.6939 14.1519C26.8804 14.9654 26.8804 16.2842 27.6939 17.0977L28.7356 18.1394C29.1418 18.5467 29.6751 18.7498 30.2085 18.7498C30.7418 18.7498 31.2751 18.5467 31.6814 18.1394C32.4949 17.3259 32.4949 16.0071 31.6814 15.1936L30.6397 14.1519Z" fill="#012E52"/>
</g>
</svg>
