<svg width="30" height="54" viewBox="0 0 30 54" fill="none" xmlns="http://www.w3.org/2000/svg">
<g opacity="0.7">
<path d="M5 13.2251C2.79388 12.2626 1.25 10.0626 1.25 7.5C1.25 4.04999 4.04999 1.25 7.5 1.25C8.90625 1.25 10.2063 1.71875 11.25 2.5061C12.2937 1.71875 13.5938 1.25 15 1.25C16.4062 1.25 17.7063 1.71875 18.75 2.5061C19.7937 1.71875 21.0938 1.25 22.5 1.25C25.95 1.25 28.75 4.04999 28.75 7.5C28.75 10.0626 27.2061 12.2626 25 13.2251V28.75H5V13.2251Z" fill="#4DD0E1"/>
<path d="M5 13.75H25V28.75H5V13.75Z" fill="#FF7043"/>
<path d="M22.5 0C21.1649 0 19.8862 0.351868 18.75 1.0144C17.6138 0.351868 16.3351 0 15 0C13.6642 0 12.3849 0.352478 11.25 1.0144C10.1132 0.351868 8.83514 0 7.5 0C3.36426 0 0 3.36426 0 7.5C0 10.1993 1.45111 12.6617 3.75 13.9874V28.75C3.75 29.44 4.31 30 5 30H25C25.69 30 26.25 29.44 26.25 28.75V13.9862C28.5507 12.6581 30 10.1974 30 7.5C30 3.36426 26.6357 0 22.5 0ZM24.4937 12.0819C23.8675 12.3593 23.1961 12.5 22.5 12.5H12.5C11.81 12.5 11.25 13.06 11.25 13.75C11.25 14.44 11.81 15 12.5 15H22.5C22.9239 15 23.3401 14.9557 23.75 14.8868V27.5H6.25V14.8868C6.65985 14.9557 7.07611 15 7.5 15C8.19 15 8.75 14.44 8.75 13.75C8.75 13.06 8.19 12.5 7.5 12.5C6.80389 12.5 6.13251 12.3593 5.49988 12.0795C3.67737 11.2845 2.5 9.487 2.5 7.5C2.5 4.74304 4.74304 2.5 7.5 2.5C8.07678 2.5 8.63617 2.60376 9.16626 2.79236C8.0957 4.10828 7.5 5.74951 7.5 7.5C7.5 8.19 8.06 8.75 8.75 8.75C9.44 8.75 10 8.19 10 7.5C10 5.9137 10.7288 4.45801 12.0032 3.50372C12.8738 2.8476 13.9099 2.5 15 2.5C16.0901 2.5 17.1262 2.8476 18.0005 3.50616C19.2712 4.45801 20 5.9137 20 7.5C20 8.19 20.56 8.75 21.25 8.75C21.94 8.75 22.5 8.19 22.5 7.5C22.5 5.74951 21.9043 4.10675 20.8344 2.79175C21.3644 2.60315 21.9238 2.5 22.5 2.5C25.257 2.5 27.5 4.74304 27.5 7.5C27.5 9.487 26.3226 11.2845 24.4937 12.0819Z" fill="#012E52"/>
<path d="M20 25C20.69 25 21.25 24.44 21.25 23.75V18.75C21.25 18.06 20.69 17.5 20 17.5C19.31 17.5 18.75 18.06 18.75 18.75V23.75C18.75 24.44 19.31 25 20 25Z" fill="#012E52"/>
<path d="M10 17.5C9.31 17.5 8.75 18.06 8.75 18.75V23.75C8.75 24.44 9.31 25 10 25C10.69 25 11.25 24.44 11.25 23.75V18.75C11.25 18.06 10.69 17.5 10 17.5Z" fill="#012E52"/>
<path d="M15 25C15.69 25 16.25 24.44 16.25 23.75V18.75C16.25 18.06 15.69 17.5 15 17.5C14.31 17.5 13.75 18.06 13.75 18.75V23.75C13.75 24.44 14.31 25 15 25Z" fill="#012E52"/>
<g clip-path="url(#clip0)">
<path d="M24.1638 39.5835C24.1638 39.5835 24.3595 44.7063 19.5782 44.9854C19.445 44.9937 19.3075 44.9979 19.1659 44.9979C17.2959 44.9979 15.8465 44.1524 15.001 43.1153L14.9968 39.5835H15.001C17.2459 38.3507 17.5499 40.354 19.5782 41.2578C20.1238 41.5035 20.7985 41.6659 21.6648 41.6659C23.5391 41.6659 24.1638 39.5835 24.1638 39.5835Z" fill="#FF8A65"/>
<path d="M19.578 36.2516C20.9582 36.2516 22.077 35.1328 22.077 33.7527C22.077 32.3725 20.9582 31.2537 19.578 31.2537C18.1979 31.2537 17.0791 32.3725 17.0791 33.7527C17.0791 35.1328 18.1979 36.2516 19.578 36.2516Z" fill="#4DD0E1"/>
<path d="M14.9967 39.5835L15.0009 43.1153C14.1512 44.1524 12.7018 44.9979 10.8318 44.9979C5.62566 44.9979 5.83391 39.5835 5.83391 39.5835C5.83391 39.5835 6.45864 41.666 8.33285 41.666C12.427 41.666 12.1521 38.0217 14.9967 39.5835Z" fill="#FF7043"/>
<path d="M24.2729 38.7601C23.8709 38.7076 23.4882 38.9525 23.367 39.3395C23.3483 39.4007 22.8855 40.833 21.6648 40.833C21.2012 40.833 20.7889 40.7772 20.4112 40.671V36.975C21.846 36.6035 22.9101 35.302 22.9101 33.7526C22.9101 31.9155 21.4153 30.4207 19.5782 30.4207C17.741 30.4207 16.2462 31.9155 16.2462 33.7526C16.2462 35.3016 17.3104 36.6035 18.7452 36.975V39.7047C18.6598 39.6302 18.5753 39.5552 18.4924 39.4806C17.7011 38.7689 16.7298 37.8951 14.9989 38.656C13.2708 37.8971 12.3 38.7697 11.5091 39.4806C10.7686 40.1454 10.003 40.833 8.33292 40.833C7.11218 40.833 6.64946 39.4007 6.63197 39.344C6.51494 38.9538 6.13135 38.7064 5.72902 38.7572C5.32502 38.8084 5.01765 39.1445 5.00183 39.5514C4.99724 39.6668 4.91353 42.3973 6.68153 44.2349C7.70069 45.294 9.09676 45.8309 10.8319 45.8309C12.4191 45.8309 13.8935 45.2857 14.9997 44.3119C16.0051 45.1995 17.3183 45.7255 18.7452 45.813V48.7463C18.7452 49.2061 19.1184 49.5793 19.5782 49.5793C20.038 49.5793 20.4112 49.2061 20.4112 48.7463V45.7272C24.1754 45.075 25.0696 41.4781 24.9959 39.5519C24.9805 39.1466 24.6748 38.8138 24.2729 38.7601ZM10.8319 44.1649C9.57156 44.1649 8.58156 43.8022 7.88936 43.0875C7.6682 42.8592 7.48703 42.6064 7.33876 42.3449C7.6353 42.4419 7.96557 42.499 8.33292 42.499C10.6415 42.499 11.7865 41.4706 12.6219 40.7197C13.2746 40.1333 13.5561 39.893 14.1642 40.1154L14.1671 42.8001C13.6619 43.3294 12.5857 44.1649 10.8319 44.1649ZM17.9122 33.7526C17.9122 32.8339 18.6594 32.0867 19.5782 32.0867C20.497 32.0867 21.2441 32.8339 21.2441 33.7526C21.2441 34.6714 20.497 35.4186 19.5782 35.4186C18.6594 35.4186 17.9122 34.6714 17.9122 33.7526ZM19.5294 44.1541C19.5286 44.1541 19.5274 44.1541 19.5261 44.1541C19.4099 44.1616 19.2895 44.1649 19.1658 44.1649C17.4095 44.1649 16.3366 43.3294 15.8335 42.8005L15.8306 40.1166C16.4428 39.8905 16.7244 40.1312 17.3787 40.7197C17.8402 41.1349 18.4149 41.6514 19.2362 42.0175C19.2396 42.0192 19.2433 42.02 19.2471 42.0217C19.2546 42.025 19.2625 42.0275 19.27 42.0304C19.9809 42.3444 20.7643 42.499 21.6648 42.499C22.0351 42.499 22.3674 42.4411 22.6652 42.3428C22.1388 43.2499 21.2008 44.0562 19.5294 44.1541Z" fill="#012E52"/>
</g>
</g>
<defs>
<clipPath id="clip0">
<rect width="20" height="20" fill="white" transform="translate(5 30)"/>
</clipPath>
</defs>
</svg>
