<svg width="50" height="50" viewBox="0 0 50 50" fill="none" xmlns="http://www.w3.org/2000/svg">
<g opacity="0.7">
<path d="M45.8333 38.5417H47.9166V46.875H2.08325V38.5417H4.16659V32.2917C4.16659 20.7815 13.4897 11.4584 24.9999 11.4584C36.5101 11.4584 45.8333 20.7815 45.8333 32.2917V38.5417Z" fill="#4DD0E1"/>
<path d="M2.08325 38.5416H47.9166V46.875H2.08325V38.5416Z" fill="#FF7043"/>
<path d="M47.9167 36.4583V32.2916C47.9167 20.3582 38.7466 10.5301 27.0833 9.47414V5.20829H29.1667C30.3167 5.20829 31.25 4.27496 31.25 3.12496C31.25 1.97496 30.3167 1.04163 29.1667 1.04163H20.8333C19.6833 1.04163 18.75 1.97496 18.75 3.12496C18.75 4.27496 19.6833 5.20829 20.8333 5.20829H22.9167V9.47414C11.2534 10.5301 2.08333 20.3582 2.08333 32.2916V36.4583C0.933329 36.4583 0 37.3916 0 38.5416V46.875C0 48.025 0.933329 48.9583 2.08333 48.9583H47.9167C49.0667 48.9583 50 48.025 50 46.875V38.5416C50 37.3916 49.0667 36.4583 47.9167 36.4583ZM45.8333 44.7916H4.16667V40.625H31.25C32.4 40.625 33.3333 39.6916 33.3333 38.5416C33.3333 37.3916 32.4 36.4583 31.25 36.4583H6.25V32.2916C6.25 21.9533 14.6617 13.5416 25 13.5416C35.3383 13.5416 43.75 21.9533 43.75 32.2916V36.4583H39.5833C38.4333 36.4583 37.5 37.3916 37.5 38.5416C37.5 39.6916 38.4333 40.625 39.5833 40.625H45.8333V44.7916Z" fill="#012E52"/>
</g>
</svg>
