<svg width="50" height="50" viewBox="0 0 50 50" fill="none" xmlns="http://www.w3.org/2000/svg">
<g opacity="0.7" clip-path="url(#clip0)">
<path d="M43.5261 18.7179C43.776 21.2178 42.3699 23.5926 40.0679 24.5822L39.8491 24.6759L38.9221 25.0717C37.4743 25.6863 35.8285 25.6863 34.3806 25.0717L33.4536 24.6759L33.2349 24.5822C30.9329 23.5926 29.5267 21.2178 29.7767 18.7179L30.9225 7.27051C31.0683 5.79141 31.7558 4.4998 32.787 3.57276C33.8182 2.64573 35.1723 2.08325 36.6514 2.08325C39.6096 2.08325 42.0886 4.32273 42.3803 7.27051L43.5261 18.7179Z" fill="#4DD0E1"/>
<path d="M23.1105 18.7491V2.08323C23.1105 0.933289 22.1772 0 21.0272 0C19.8773 0 18.944 0.933289 18.944 2.08323V18.7491C18.944 19.898 18.0096 20.8323 16.8607 20.8323H15.8191V2.08323C15.8191 0.933289 14.8858 0 13.7359 0C12.5859 0 11.6527 0.933289 11.6527 2.08323V20.8323H10.611C9.46213 20.8323 8.5278 19.898 8.5278 18.7491V2.08323C8.5278 0.933289 7.59451 0 6.44456 0C5.29462 0 4.36133 0.933289 4.36133 2.08323V18.7491C4.36133 21.4375 6.06958 23.727 8.45593 24.6082L7.48826 47.8279C7.44035 48.9779 8.33302 49.9487 9.48296 49.9966C10.6579 50.0633 11.6047 49.1518 11.6516 48.0019L12.6089 24.9988H14.8619L15.8202 48.0009C15.867 49.1216 16.7899 49.9976 17.9013 49.9976C17.9305 49.9976 17.9607 49.9976 17.9899 49.9955C19.1398 49.9476 20.0325 48.9768 19.9846 47.8269L19.0169 24.6072C21.4022 23.727 23.1105 21.4375 23.1105 18.7491Z" fill="#012E52"/>
<path d="M45.5989 18.5106L44.4531 7.06529C44.0552 3.03736 40.7012 0 36.6514 0C34.7119 0 32.8454 0.718716 31.3954 2.02282C29.9465 3.32484 29.0424 5.11539 28.8497 7.06217L27.7039 18.5106C27.4039 21.5115 28.8268 24.3489 31.3173 25.9175L30.4038 47.8269C30.3559 48.9769 31.2486 49.9477 32.3985 49.9956C32.4277 49.9977 32.4568 49.9977 32.486 49.9977C33.5964 49.9977 34.5192 49.1217 34.5661 48.0009L35.4202 27.5081C35.8275 27.5716 36.2379 27.6133 36.6504 27.6133C37.0629 27.6133 37.4743 27.5716 37.8826 27.5081L38.7367 48.0019C38.7826 49.1217 39.7054 49.9977 40.8169 49.9977C40.846 49.9977 40.8762 49.9977 40.9054 49.9956C42.0553 49.9477 42.948 48.9769 42.9001 47.8269L41.9866 25.9175C44.475 24.3509 45.8989 21.5136 45.5989 18.5106ZM35.1984 23.1552L34.2713 22.7593L34.0568 22.6677C32.5756 22.0313 31.6881 20.5272 31.8485 18.9252L32.9943 7.47465C33.0839 6.56323 33.5047 5.72681 34.1786 5.12163C34.865 4.50604 35.7431 4.16647 36.6514 4.16647C38.5493 4.16647 40.1211 5.58932 40.3075 7.47777L41.4533 18.9252C41.6137 20.5282 40.7262 22.0313 39.2482 22.6666L38.1076 23.1541C37.1826 23.5468 36.1202 23.5468 35.1984 23.1552Z" fill="#012E52"/>
</g>
<defs>
<clipPath id="clip0">
<rect width="50" height="50" fill="white"/>
</clipPath>
</defs>
</svg>
