<svg width="20" height="20" viewBox="0 0 20 20" fill="none" xmlns="http://www.w3.org/2000/svg">
<g opacity="0.7">
<path d="M19.1666 9.99992C19.1666 15.0626 15.0626 19.1666 9.99992 19.1666C4.93726 19.1666 0.833252 15.0626 0.833252 9.99992C0.833252 4.93726 4.93726 0.833252 9.99992 0.833252C15.0626 0.833252 19.1666 4.93726 19.1666 9.99992Z" fill="#4DD0E1"/>
<path d="M12.9166 9.99992C12.9166 11.6108 11.6108 12.9166 9.99992 12.9166C8.389 12.9166 7.08325 11.6108 7.08325 9.99992C7.08325 8.389 8.389 7.08325 9.99992 7.08325C11.6108 7.08325 12.9166 8.389 12.9166 9.99992Z" fill="#FF7043"/>
<path d="M17.8955 5.26245C17.4813 5.46285 17.3079 5.9613 17.5083 6.37533C18.0558 7.50631 18.3333 8.72538 18.3333 10C18.3333 14.5949 14.5949 18.3333 10 18.3333C5.40507 18.3333 1.66667 14.5949 1.66667 10C1.66667 5.40507 5.40507 1.66667 10 1.66667C11.9041 1.66667 13.6928 2.28841 15.1733 3.46456C15.5324 3.75122 16.0575 3.6912 16.3442 3.33089C16.6309 2.97078 16.5708 2.44629 16.2103 2.16003C14.4576 0.767008 12.252 0 10 0C4.48629 0 0 4.48629 0 10C0 15.5137 4.48629 20 10 20C15.5137 20 20 15.5137 20 10C20 8.47209 19.6663 7.00785 19.0084 5.64962C18.8084 5.23458 18.3083 5.06165 17.8955 5.26245Z" fill="#012E52"/>
<path d="M10.0001 3.33325C9.54008 3.33325 9.16675 3.70658 9.16675 4.16659V9.99992C9.16675 10.4599 9.54008 10.8333 10.0001 10.8333H14.1667C14.6267 10.8333 15.0001 10.4599 15.0001 9.99992C15.0001 9.53992 14.6267 9.16658 14.1667 9.16658H10.8334V4.16659C10.8334 3.70658 10.4601 3.33325 10.0001 3.33325Z" fill="#012E52"/>
</g>
</svg>
