<svg width="49" height="50" viewBox="0 0 49 50" fill="none" xmlns="http://www.w3.org/2000/svg">
<g opacity="0.7" clip-path="url(#clip0)">
<path d="M46.9168 24.9999V29.1665L39.6253 32.1456V24.9999C39.6253 16.375 32.6254 9.37507 24.0005 9.37507H16.8547L19.8339 2.0835H24.0005C36.6566 2.0835 46.9168 12.3438 46.9168 24.9999Z" fill="#E0F7FA"/>
<path d="M39.6251 24.9998V32.1455L1.08398 47.9162L6.88599 33.7393C8.00056 34.1559 9.20888 34.3747 10.4589 34.3747C16.2088 34.3747 20.8754 29.7081 20.8754 23.9581C20.8754 19.7394 18.365 16.1145 14.7609 14.4791L16.8546 9.375H24.0004C32.6252 9.375 39.6251 16.3749 39.6251 24.9998ZM32.3336 26.5623C32.3336 26.2706 32.1044 26.0414 31.8127 26.0414C31.5211 26.0414 31.2919 26.2706 31.2919 26.5623C31.2919 26.8539 31.5211 27.0831 31.8127 27.0831C32.1044 27.0831 32.3336 26.8539 32.3336 26.5623ZM28.167 18.2291C28.167 17.9374 27.9378 17.7082 27.6461 17.7082C27.3545 17.7082 27.1253 17.9374 27.1253 18.2291C27.1253 18.5207 27.3545 18.7499 27.6461 18.7499C27.9378 18.7499 28.167 18.5207 28.167 18.2291Z" fill="#4DD0E1"/>
<path d="M14.7609 14.4792C18.365 16.1146 20.8754 19.7396 20.8754 23.9583C20.8754 29.7082 16.2088 34.3748 10.4589 34.3748C9.20887 34.3748 8.00055 34.1561 6.88599 33.7394L14.7609 14.4792Z" fill="#FF7043"/>
<path d="M24.0003 0.000244141H19.8337C18.9868 0.000244141 18.2254 0.511696 17.9046 1.29606L12.8328 13.6886C12.8328 13.6896 12.8317 13.6896 12.8317 13.6907L4.95682 32.9509C4.95577 32.9529 4.95577 32.954 4.95577 32.9561L-0.84415 47.1267C-1.1629 47.9038 -0.983732 48.7954 -0.388948 49.3892C0.0100052 49.7881 0.541248 49.9996 1.08395 49.9996C1.34957 49.9996 1.61832 49.9485 1.87352 49.8444L30.2502 38.2362V45.833C30.2502 46.983 31.1836 47.9163 32.3335 47.9163C33.4835 47.9163 34.4169 46.983 34.4169 45.833V36.531L47.7052 31.0946C48.4885 30.7748 49 30.0134 49 29.1665V24.9999C49 11.2147 37.7845 0.000244141 24.0003 0.000244141ZM15.7608 17.5386C17.6483 19.099 18.7921 21.4448 18.7921 23.9583C18.7921 28.553 15.0536 32.2915 10.4588 32.2915C10.2182 32.2915 9.97758 32.2811 9.74217 32.2613L15.7608 17.5386ZM37.5418 30.7498L4.89432 44.1059L8.11615 36.2331C8.88072 36.3789 9.66196 36.4581 10.4588 36.4581C17.3514 36.4581 22.9587 30.8509 22.9587 23.9583C22.9587 19.751 20.8212 15.8615 17.3848 13.5678L18.2483 11.4584H24.0003C31.4669 11.4584 37.5418 17.5333 37.5418 24.9999V30.7498ZM44.8334 27.7676L41.7084 29.0457V24.9999C41.7084 15.2355 33.7648 7.29182 24.0003 7.29182H19.9545L21.2337 4.16686H24.0003C35.4877 4.16686 44.8334 13.5126 44.8334 24.9999V27.7676Z" fill="#012E52"/>
<path d="M39.6251 36.458C38.4751 36.458 37.5417 37.3913 37.5417 38.5413V41.6663C37.5417 42.8163 38.4751 43.7496 39.6251 43.7496C40.775 43.7496 41.7084 42.8163 41.7084 41.6663V38.5413C41.7084 37.3913 40.775 36.458 39.6251 36.458Z" fill="#012E52"/>
<path d="M30.2503 18.2289C30.2503 16.7935 29.0826 15.6248 27.6461 15.6248C26.2097 15.6248 25.042 16.7935 25.042 18.2289C25.042 19.6643 26.2097 20.833 27.6461 20.833C29.0826 20.833 30.2503 19.6643 30.2503 18.2289Z" fill="#012E52"/>
<path d="M29.2087 26.5621C29.2087 27.9975 30.3764 29.1663 31.8129 29.1663C33.2493 29.1663 34.417 27.9975 34.417 26.5621C34.417 25.1267 33.2493 23.958 31.8129 23.958C30.3764 23.958 29.2087 25.1267 29.2087 26.5621Z" fill="#012E52"/>
</g>
<defs>
<clipPath id="clip0">
<rect width="50" height="50" fill="white" transform="translate(-1)"/>
</clipPath>
</defs>
</svg>
